<svg xmlns="http://www.w3.org/2000/svg" width="24" height="24">
    <path d="M4 7a1 1 0 0 1 0-2h1.18a2.99 2.99 0 0 1 5.64 0H20a1 1 0 0 1 0 2h-9.18a2.99 2.99 0 0 1-5.64 0H4zm16 4a1 1 0 0 1 0 2h-1.18a2.99 2.99 0 0 1-5.64 0H4a1 1 0 0 1 0-2h9.18a2.99 2.99 0 0 1 5.64 0H20zm0 6a1 1 0 0 1 0 2h-9.18a2.99 2.99 0 0 1-5.64 0H4a1 1 0 0 1 0-2h1.18a2.99 2.99 0 0 1 5.64 0H20zM8 19a1 1 0 1 0 0-2 1 1 0 0 0 0 2zm8-6a1 1 0 1 0 0-2 1 1 0 0 0 0 2zM8 5a1 1 0 1 0 0 2 1 1 0 0 0 0-2z" fill="#0AF" fill-rule="evenodd"/>
</svg>
