<svg width="12" height="12" viewBox="0 0 12 12" fill="none" xmlns="http://www.w3.org/2000/svg">
<path d="M4.66313 0C7.23111 0 9.35275 2.04017 9.35275 4.53448C9.35275 5.48249 9.02276 6.35474 8.50491 7.08513L11.6313 10.1253C11.7114 10.2014 11.7752 10.2921 11.8192 10.3922C11.8633 10.4924 11.8865 10.5999 11.8878 10.7088C11.889 10.8177 11.8682 10.9257 11.8265 11.0268C11.7848 11.1278 11.7231 11.2199 11.6448 11.2977C11.5665 11.3756 11.4732 11.4376 11.3702 11.4804C11.2672 11.5232 11.1566 11.5458 11.0446 11.547C10.9326 11.5481 10.8215 11.5279 10.7176 11.4873C10.6137 11.4467 10.5191 11.3866 10.439 11.3104L7.31263 8.27028C6.56035 8.77395 5.63984 9.06897 4.66313 9.06897C2.09513 9.06897 0 7.02879 0 4.53448C0 2.04017 2.09513 0 4.66313 0ZM4.66313 1.6489C3.01208 1.6489 1.69568 2.9308 1.69568 4.53448C1.69568 6.13816 3.01208 7.42006 4.66313 7.42006C6.31417 7.42006 7.63057 6.13816 7.63057 4.53448C7.63057 2.9308 6.31417 1.6489 4.66313 1.6489Z" fill="#24AEF6"/>
</svg>
