<svg width="10" height="10" viewBox="0 0 10 10" fill="none" xmlns="http://www.w3.org/2000/svg">
<path d="M7.99419 1.60646C7.35253 0.900625 6.31086 0.900625 5.66919 1.60646L5.00253 2.33979C4.54419 2.22979 4.06919 2.23896 3.61919 2.35813C3.67753 2.27563 3.73586 2.20229 3.80253 2.12896L4.96919 0.845625C5.99419 -0.281875 7.65253 -0.281875 8.67753 0.845625C9.73586 2.00979 9.73586 3.84313 8.71919 4.97063C8.71919 4.97063 7.41086 6.40063 7.34419 6.46479C7.16919 6.62063 6.97753 6.74896 6.77753 6.84979C6.34419 7.06063 5.87753 7.14313 5.41086 7.08813C5.24419 7.06979 5.07753 7.03313 4.91086 6.96896C4.51919 6.83146 4.15253 6.59313 3.84419 6.25396C3.49419 5.86896 3.27753 5.46563 3.16086 5.03479L3.49419 4.66813C3.65253 4.49396 3.83586 4.38396 4.02753 4.31979C4.06086 4.73229 4.21919 5.12646 4.50253 5.43813C4.82753 5.79563 5.18586 5.96979 5.56086 6.00646C5.71086 6.02479 5.86086 6.01563 6.00253 5.97896C6.31919 5.91479 6.61919 5.74979 6.86086 5.48396L8.02753 4.20062C8.66919 3.49479 8.66919 2.34896 8.02753 1.64313L7.99419 1.60646ZM4.49419 3.81563C4.34419 3.79729 4.19419 3.80646 4.05253 3.84313C3.73586 3.90729 3.43586 4.07229 3.19419 4.33813L2.02753 5.62146C1.38586 6.32729 1.38586 7.47313 2.02753 8.17896C2.70253 8.93063 3.74419 8.93063 4.38586 8.22479L5.05253 7.49146C5.51086 7.60146 5.98586 7.59229 6.43586 7.47313C6.37753 7.55563 6.31919 7.62896 6.25253 7.70229L5.08586 8.98563C4.06086 10.1131 2.40253 10.1131 1.37753 8.98563C0.319194 7.82146 0.319194 5.98813 1.33586 4.86063C1.33586 4.86063 2.64419 3.43063 2.71086 3.36646C2.88586 3.21063 3.07753 3.08229 3.27753 2.98146C3.70253 2.77063 4.17753 2.69729 4.63586 2.75229C4.80253 2.77063 4.96919 2.80729 5.13586 2.87146C5.52753 3.00896 5.89419 3.24729 6.20253 3.58646C6.55253 3.97146 6.76919 4.37479 6.88586 4.80563L6.55253 5.17229C6.39419 5.34646 6.21086 5.45646 6.01919 5.52063C5.98586 5.10813 5.82753 4.71396 5.54419 4.40229C5.22753 4.02646 4.86086 3.85229 4.49419 3.81563Z" fill="#24AEF6"/>
</svg>
